<?xml version="1.0" standalone="no"?><!DOCTYPE svg PUBLIC "-//W3C//DTD SVG 1.1//EN" "http://www.w3.org/Graphics/SVG/1.1/DTD/svg11.dtd"><svg t="1498908478419" class="icon" style="" viewBox="0 0 1024 1024" version="1.1" xmlns="http://www.w3.org/2000/svg" p-id="5673" xmlns:xlink="http://www.w3.org/1999/xlink" width="200" height="200"><defs><style type="text/css"></style></defs><path d="M574.937 691.739l-65.772-66.906-29.484 29.484 65.772 65.772 29.484-28.35zM842.56 374.219c-105.462-20.412-217.728 7.938-294.839 82.782l-73.71 73.71 17.010 17.010 55.566-55.566c105.462-106.596 267.623 54.432 163.296 161.028v1.134h-1.134l-252.882 252.882c-65.772 63.504-162.162 60.102-224.532-2.268l-1.134-1.134-32.886 32.886c-12.474 13.607-35.154 13.607-47.628 0s-12.474-35.154 0-47.628l43.092-43.092c-20.412-52.164-14.742-115.668 38.556-167.833l48.762-48.762-23.814-23.814c-7.938-7.938-7.938-20.412 0-28.35s21.546-7.938 28.35 0l24.948 24.948 29.484-29.484-23.814-23.814c-7.938-7.938-7.938-20.412 0-28.35s20.412-7.938 28.35 0l23.814 23.814 29.484-29.484-24.948-27.216c-7.938-7.938-7.938-20.412 0-28.35s20.412-7.938 28.35 0l24.948 24.948 70.308-69.174v-1.134c78.246-78.246 107.73-193.914 86.183-301.643-3.402-18.144 7.938-36.288 26.082-39.69 11.34-3.402 22.681 1.134 30.618 9.072l237.006 235.872c13.607 13.607 13.607 35.154 0 47.628-9.072 10.206-21.546 12.474-32.886 9.072zM762.047 299.375l-105.462-105.462c-1.134 45.36-10.206 88.452-26.082 131.545 41.958-15.876 86.183-24.948 131.545-26.082zM461.537 577.205l-17.010-17.010-29.484 29.484 15.876 17.010 30.618-29.484zM659.987 605.555c41.958-43.092-23.814-108.864-66.906-65.772l-55.566 55.566 66.906 65.772 55.566-55.566zM450.197 683.801l-29.484 29.484 65.772 65.772 29.484-29.484-65.772-65.772zM392.363 741.635l-113.401 113.401 1.134 1.134c36.288 36.288 89.586 39.69 129.276 2.268l1.134-1.134 48.762-49.897-66.906-65.772zM249.481 788.128l94.122-95.257-15.876-17.010-49.895 49.897c-19.278 19.278-28.35 41.958-28.35 62.37zM373.085 664.523l29.484-29.484-17.010-17.010-29.484 29.484 17.010 17.010z" p-id="5674" fill="#2c2c2c"></path></svg>